<?xml version="1.0" encoding="UTF-8"?>
<svg version="1.1" xmlns="http://www.w3.org/2000/svg" width="512" height="512">
<path d="M0 0 C1.44469224 -0.00571017 2.88937997 -0.01267693 4.33406067 -0.02079773 C8.23909097 -0.0386727 12.14389587 -0.03757153 16.04895473 -0.03185534 C19.31673076 -0.02875533 22.58446401 -0.03486494 25.85223395 -0.04089409 C33.56493728 -0.05491905 41.2775298 -0.05339491 48.99023438 -0.04199219 C56.93037409 -0.03051217 64.87017599 -0.04458917 72.8102712 -0.07138866 C79.64366173 -0.09358388 86.47694651 -0.10017448 93.3103705 -0.09431225 C97.38454157 -0.09095068 101.45849611 -0.09330426 105.53263664 -0.11056328 C109.36514564 -0.12609161 113.1971562 -0.12201237 117.02964592 -0.10325813 C118.43040882 -0.09958848 119.83120914 -0.10263309 121.23193741 -0.11314392 C131.09033215 -0.1814322 137.67496122 1.15200477 145.89868164 6.52905273 C151.24622424 12.11966545 153.91732424 17.35601856 153.83544922 25.23046875 C153.81764404 25.89876709 153.79983887 26.56706543 153.78149414 27.25561523 C153.76711304 28.29069214 153.76711304 28.29069214 153.75244141 29.34667969 C153.72762636 31.03264285 153.68952164 32.71840162 153.64868164 34.40405273 C154.85200638 34.39517029 156.05533112 34.38628784 157.29512024 34.37713623 C168.66722078 34.29584675 180.03926193 34.23598972 191.41158772 34.19680405 C197.25742571 34.17598064 203.10302806 34.14775888 208.94873047 34.10229492 C214.59624212 34.0586501 220.24352793 34.03487621 225.8911953 34.02454376 C228.03964986 34.01718579 230.18809286 34.00281776 232.33645058 33.98113251 C256.45184611 33.74752259 256.45184611 33.74752259 265.36743164 40.44702148 C265.95524414 41.1547168 266.54305664 41.86241211 267.14868164 42.59155273 C267.75711914 43.28635742 268.36555664 43.98116211 268.99243164 44.69702148 C273.06018512 51.34549592 274.09142455 58.04941151 274.00944519 65.72450256 C274.01200846 66.61832325 274.01457174 67.51214393 274.01721269 68.4330501 C274.02212257 71.40412268 274.00570404 74.37467799 273.98925781 77.34570312 C273.98841094 79.48493437 273.98888787 81.62416648 273.99058533 83.76339722 C273.99144433 89.5540788 273.97383371 95.34457309 273.95286345 101.13521123 C273.93408099 107.19303129 273.93234497 113.25085587 273.92878723 119.30870056 C273.9194714 130.77259076 273.89486379 142.23639489 273.86473876 153.70024723 C273.83118045 166.754609 273.81470513 179.80897493 273.79965246 192.86336911 C273.76831388 219.71031132 273.71556229 246.5571772 273.64868164 273.40405273 C274.4852832 273.38310547 275.32188477 273.3621582 276.18383789 273.34057617 C279.32230473 273.27193307 282.4603858 273.2220271 285.59936523 273.18432617 C287.61215791 273.15459228 289.62460298 273.10373544 291.63696289 273.05249023 C299.85439562 272.96990297 306.08127505 273.07430457 312.21243191 278.88643551 C316.18056692 283.60694255 316.35897329 288.12755525 316.27978516 294.09960938 C316.29051811 295.52046089 316.29051811 295.52046089 316.3014679 296.97001648 C316.3183068 300.08524548 316.2989814 303.19902578 316.27758789 306.31420898 C316.27841696 308.48701598 316.28087777 310.65982291 316.28489685 312.83262634 C316.28775148 317.37949572 316.27308457 321.92587158 316.24560547 326.47265625 C316.21150345 332.29575363 316.21755112 338.11796994 316.23626804 343.94110966 C316.24684411 348.42532168 316.23789492 352.90932924 316.22288322 357.39352226 C316.21770682 359.54048493 316.21817663 361.68746899 316.22442818 363.83442879 C316.22988837 366.83604883 316.20947944 369.83641367 316.18212891 372.83789062 C316.18865479 373.72169403 316.19518066 374.60549744 316.2019043 375.51608276 C316.11764338 380.96409985 315.26697507 384.07945632 311.64868164 388.40405273 C306.51226695 392.92898948 303.46069033 393.5510198 296.76683426 393.53827381 C295.52511444 393.54180216 295.52511444 393.54180216 294.25830936 393.54540178 C291.45427749 393.5521162 288.6502917 393.55163283 285.84625244 393.55122375 C283.82764958 393.55452086 281.80904739 393.5582461 279.79044604 393.56236523 C274.21977627 393.57241077 268.64911727 393.57610612 263.07843971 393.57875454 C257.07966272 393.58265003 251.08089433 393.59222884 245.0821228 393.60096741 C231.26920584 393.61981742 217.45628824 393.62999089 203.64336208 393.63842809 C196.8202647 393.64263228 189.9971682 393.64785456 183.17407157 393.65311262 C159.82641376 393.67100394 136.47875571 393.6860009 113.13109207 393.69343281 C111.66488005 393.69390757 110.19866803 393.69438346 108.73245601 393.69486047 C107.64177167 393.69521503 107.64177167 393.69521503 106.5290533 393.69557676 C102.84497108 393.69677798 99.16088886 393.69799342 95.47680664 393.69921875 C94.74568405 393.6994589 94.01456146 393.69969905 93.26128363 393.69994648 C69.55067784 393.70784134 45.84012205 393.73127643 22.12953809 393.76377469 C-2.92763642 393.79805604 -27.98478167 393.81778237 -53.04198003 393.82107705 C-55.79156956 393.8214946 -58.54115908 393.82197417 -61.2907486 393.82250023 C-62.30631789 393.82268502 -62.30631789 393.82268502 -63.34240374 393.82287354 C-74.2480777 393.82520767 -85.15369369 393.84087945 -96.05934698 393.86134208 C-107.0170906 393.88157657 -117.9747739 393.88675465 -128.93253419 393.87757144 C-134.87144424 393.87301188 -140.81016569 393.87500891 -146.74905014 393.89433289 C-152.18223416 393.91185925 -157.61509053 393.91105286 -163.04827753 393.89543559 C-165.01735983 393.89304345 -166.9864642 393.89746551 -168.95551261 393.90926424 C-171.62611277 393.92427981 -174.29553638 393.91478275 -176.96610641 393.89903736 C-177.7359019 393.90925957 -178.50569739 393.91948178 -179.29882002 393.93001375 C-184.46439436 393.86325191 -187.36541191 392.64869494 -191.35131836 389.40405273 C-196.15694071 383.94902196 -196.50679332 380.49966848 -196.52832031 373.38378906 C-196.53817711 371.98107254 -196.53817711 371.98107254 -196.54823303 370.55001831 C-196.56799439 367.44537277 -196.57963606 364.34077571 -196.58959961 361.23608398 C-196.59367514 360.17649664 -196.59775066 359.11690929 -196.60194969 358.02521324 C-196.62282433 352.41508554 -196.637119 346.80498238 -196.64648438 341.19482422 C-196.65754083 335.40205471 -196.69192819 329.60967017 -196.73165607 323.81703663 C-196.75781653 319.36200756 -196.76617581 314.90707018 -196.76976585 310.45197105 C-196.77463468 308.31696668 -196.78625705 306.18196649 -196.80480385 304.04703712 C-196.82917853 301.05481235 -196.82823289 298.06358294 -196.82128906 295.07128906 C-196.83409912 294.19257645 -196.84690918 293.31386383 -196.86010742 292.40852356 C-196.8109079 286.57793462 -195.74544215 283.18312448 -192.35131836 278.40405273 C-187.03836152 274.28380049 -183.34409797 273.27744671 -176.71459961 273.30639648 C-175.41586914 273.30961914 -174.11713867 273.3128418 -172.77905273 273.31616211 C-171.40730728 273.32451742 -170.03556249 273.33298237 -168.66381836 273.34155273 C-167.28035641 273.34656938 -165.89689273 273.351132 -164.51342773 273.35522461 C-161.12601441 273.36702744 -157.73868803 273.38349255 -154.35131836 273.40405273 C-154.35408374 272.29398896 -154.35684912 271.18392519 -154.3596983 270.04022312 C-154.42631183 243.02366758 -154.47560273 216.00712269 -154.50675488 188.99050236 C-154.52222043 175.92544192 -154.54330409 162.86043576 -154.57763672 149.79541016 C-154.6075485 138.40727322 -154.62689563 127.01917559 -154.63358384 115.63100046 C-154.63749305 109.60166364 -154.64667398 103.57243927 -154.66850853 97.5431385 C-154.68890165 91.86576223 -154.69514638 86.18854452 -154.6906414 80.5111351 C-154.69146533 78.4298701 -154.69741404 76.34859969 -154.70893478 74.26736641 C-154.723923 71.41955202 -154.72024884 68.57233151 -154.71208191 65.72450256 C-154.72082043 64.90638236 -154.72955896 64.08826215 -154.73856229 63.24535042 C-154.67121108 54.52005445 -152.3213198 47.51330215 -146.32006836 41.13061523 C-141.14441517 36.59164954 -135.01013738 34.27500297 -128.14984131 34.28379822 C-127.31975555 34.28242355 -126.4896698 34.28104889 -125.63442993 34.27963257 C-124.73243866 34.28322784 -123.83044739 34.28682312 -122.90112305 34.29052734 C-121.94468903 34.29038132 -120.988255 34.29023529 -120.00283813 34.29008484 C-116.84293344 34.29078125 -113.68308776 34.298561 -110.52319336 34.30639648 C-108.3317264 34.30826163 -106.14025903 34.30968508 -103.9487915 34.3106842 C-98.18171029 34.3145018 -92.41465427 34.32432564 -86.64758301 34.33538818 C-80.76237326 34.34561857 -74.87715944 34.35018532 -68.99194336 34.35522461 C-57.44505729 34.36594856 -45.89818992 34.38301592 -34.35131836 34.40405273 C-34.37524658 33.38577393 -34.3991748 32.36749512 -34.42382812 31.31835938 C-34.44318464 29.96281709 -34.46195223 28.60726631 -34.48022461 27.25170898 C-34.4975061 26.58288696 -34.5147876 25.91406494 -34.53259277 25.22497559 C-34.60531119 18.01703782 -32.44487427 12.93310923 -27.74194336 7.56811523 C-19.65005543 -0.04122892 -10.55349577 -0.03776103 0 0 Z " fill="#020100" transform="translate(196.351318359375,118.595947265625)"/>
<path d="M0 0 C1.10071335 -0.00687332 2.2014267 -0.01374664 3.335495 -0.02082825 C4.53311462 -0.00285187 5.73073425 0.01512451 6.96464539 0.03364563 C8.86768684 0.03255043 8.86768684 0.03255043 10.80917358 0.03143311 C14.28019718 0.03000058 17.75035396 0.05936215 21.22117639 0.09430289 C24.85129396 0.12559455 28.48143219 0.12849931 32.11166382 0.13442993 C38.98238628 0.14996025 45.85271016 0.19097728 52.72325724 0.24117738 C60.54662622 0.29709648 68.37001441 0.32456372 76.19353354 0.34965456 C92.28373044 0.40189422 108.37352667 0.48982019 124.46342468 0.60127258 C126.55674606 4.42242816 126.69588452 7.17101218 126.65873718 11.55439758 C126.65590729 12.21461914 126.65307739 12.8748407 126.65016174 13.55506897 C126.63900883 15.65399155 126.61391414 17.75248 126.58842468 19.85127258 C126.57838852 21.27834973 126.56926378 22.7054336 126.56108093 24.13252258 C126.53908579 27.62224586 126.50459004 31.11171682 126.46342468 34.60127258 C125.47342468 34.60127258 124.48342468 34.60127258 123.46342468 34.60127258 C122.86529968 33.83814758 122.26717468 33.07502258 121.65092468 32.28877258 C118.51113261 28.43131375 115.67937803 26.85308106 110.66825867 26.28364563 C107.30301597 26.12457077 103.95730749 26.09374435 100.58842468 26.10127258 C99.44244812 26.07291321 98.29647156 26.04455383 97.11576843 26.01533508 C90.16014908 25.99932675 84.58840941 26.53166744 79.46342468 31.60127258 C76.60176933 35.46144007 76.07953382 38.23751448 76.06498718 43.00361633 C76.06112 44.22371399 76.05725281 45.44381165 76.05326843 46.70088196 C76.06487 47.96738586 76.07647156 49.23388977 76.08842468 50.53877258 C76.07682312 51.8014093 76.06522156 53.06404602 76.05326843 54.36494446 C76.05713562 55.58633118 76.06100281 56.8077179 76.06498718 58.06611633 C76.07006287 59.7308197 76.07006287 59.7308197 76.07524109 61.42915344 C76.67849146 66.35873339 78.35257736 69.59880061 82.02592468 72.91377258 C87.53345418 76.72667762 93.17848627 75.82418476 99.71342468 75.85127258 C100.94190125 75.87189758 102.17037781 75.89252258 103.43608093 75.91377258 C104.62588562 75.91892883 105.81569031 75.92408508 107.04154968 75.92939758 C108.67205261 75.94341614 108.67205261 75.94341614 110.335495 75.9577179 C113.92114034 75.54911329 116.31423357 74.31193036 119.46342468 72.60127258 C120.12342468 72.60127258 120.78342468 72.60127258 121.46342468 72.60127258 C121.75217468 72.02377258 122.04092468 71.44627258 122.33842468 70.85127258 C123.38009135 68.76793925 124.42175802 66.68460592 125.46342468 64.60127258 C125.79342468 64.60127258 126.12342468 64.60127258 126.46342468 64.60127258 C126.46342468 81.10127258 126.46342468 97.60127258 126.46342468 114.60127258 C125.14342468 112.95127258 123.82342468 111.30127258 122.46342468 109.60127258 C115.72397817 102.92922054 109.70245196 103.39450376 100.65092468 103.35127258 C99.5829364 103.33064758 98.51494812 103.31002258 97.41459656 103.28877258 C91.30769414 103.25855909 86.81131549 103.55463925 81.46342468 106.60127258 C75.4036424 113.13945873 76.24771138 118.76245489 76.21342468 127.35127258 C76.19279968 128.62744446 76.17217468 129.90361633 76.15092468 131.21846008 C76.14576843 132.45338196 76.14061218 133.68830383 76.13529968 134.96064758 C76.12595398 136.08954407 76.11660828 137.21844055 76.10697937 138.38154602 C76.6498736 143.28544266 78.33876393 146.53428674 81.90092468 149.91377258 C87.72780642 153.75098739 94.59239197 152.85847723 101.33842468 152.91377258 C102.5101825 152.94277649 103.68194031 152.9717804 104.88920593 153.00166321 C113.50141677 153.09251008 113.50141677 153.09251008 120.46342468 148.60127258 C122.11605688 146.7599406 122.11605688 146.7599406 123.27592468 144.85127258 C123.99779968 143.77877258 124.71967468 142.70627258 125.46342468 141.60127258 C125.79342468 141.60127258 126.12342468 141.60127258 126.46342468 141.60127258 C126.46342468 158.10127258 126.46342468 174.60127258 126.46342468 191.60127258 C124.48342468 189.12627258 124.48342468 189.12627258 122.46342468 186.60127258 C115.53561651 179.89366369 109.37304287 180.36093313 100.15092468 180.28877258 C98.92695984 180.25976868 97.702995 180.23076477 96.44194031 180.20088196 C87.66218357 180.01716317 87.66218357 180.01716317 80.46342468 184.60127258 C75.7356651 189.39994856 75.94375065 194.34431626 75.91654968 200.73994446 C75.93975281 202.62036438 75.93975281 202.62036438 75.96342468 204.53877258 C75.94795593 205.78851868 75.93248718 207.03826477 75.91654968 208.32588196 C75.95064504 217.71447521 75.95064504 217.71447521 80.46342468 225.60127258 C86.56070735 230.58112496 92.7668844 230.23680504 100.40092468 230.16377258 C101.54238953 230.18762024 102.68385437 230.2114679 103.85990906 230.23603821 C111.15870955 230.22338864 115.80929626 229.25601616 121.46342468 224.60127258 C123.93842468 222.62127258 123.93842468 222.62127258 126.46342468 220.60127258 C126.46342468 232.15127258 126.46342468 243.70127258 126.46342468 255.60127258 C81.25342468 255.60127258 36.04342468 255.60127258 -10.53657532 255.60127258 C-10.73823206 193.06527523 -10.73823206 193.06527523 -10.78071594 166.97822571 C-10.7905055 161.00695223 -10.80060796 155.0356794 -10.81123352 149.06440735 C-10.81321164 147.94178485 -10.81321164 147.94178485 -10.81522971 146.7964831 C-10.83698393 134.70948717 -10.87640715 122.62261003 -10.9223393 110.53568456 C-10.96907579 98.13378173 -10.99686475 85.73194113 -11.00701779 73.32995385 C-11.01388283 65.67548785 -11.03557493 58.02135742 -11.07615765 50.3669947 C-11.10568001 44.500355 -11.10885654 38.63388809 -11.10211372 32.76717186 C-11.10349235 30.35847785 -11.11347872 27.94977144 -11.13260269 25.54115295 C-11.15739655 22.2581339 -11.15152928 18.97656293 -11.1378479 15.69351196 C-11.15241211 14.7353391 -11.16697631 13.77716623 -11.18198186 12.78995782 C-11.1316911 8.34041155 -10.97656083 6.22227633 -8.34503174 2.50808716 C-5.21150314 0.38056331 -3.74535202 -0.01809349 0 0 Z " fill="#FC5621" transform="translate(189.5365753173828,136.3987274169922)"/>
<path d="M0 0 C157.74 0 315.48 0 478 0 C478 28.05 478 56.1 478 85 C466.78 85 455.56 85 444 85 C444 70.81 444 56.62 444 42 C445.98 41.01 447.96 40.02 450 39 C451.49498913 36.01002175 451.11577446 33.29957225 451 30 C450.67 29.01 450.34 28.02 450 27 C446.50798457 25.54212425 442.65022099 25.8518155 438.92407227 25.82299805 C438.21950897 25.81642685 437.51494568 25.80985565 436.78903198 25.80308533 C434.46482222 25.78342466 432.14067673 25.77170835 429.81640625 25.76171875 C429.02093824 25.75764322 428.22547024 25.7535677 427.40589714 25.74936867 C423.19857928 25.72854265 418.99129374 25.7142238 414.78393555 25.70483398 C410.44154761 25.69375335 406.0996698 25.65932498 401.7574625 25.61966228 C398.41427154 25.59351641 395.07120284 25.58514418 391.72791862 25.58155251 C390.12714108 25.57668431 388.52636908 25.56506359 386.9256916 25.54651451 C384.68515575 25.52215618 382.44595009 25.52308075 380.20532227 25.5300293 C378.29481834 25.52122993 378.29481834 25.52122993 376.34571838 25.51225281 C372.42100994 26.08440662 370.74695189 27.18449144 368 30 C367.61010784 32.37366049 367.61010784 32.37366049 368.1875 34.75 C368.39439453 35.94882812 368.39439453 35.94882812 368.60546875 37.171875 C368.80076172 38.07679688 368.80076172 38.07679688 369 39 C371.31 39.99 373.62 40.98 376 42 C376 56.19 376 70.38 376 85 C347.62 85 319.24 85 290 85 C290 68.17 290 51.34 290 34 C293.63 33.67 297.26 33.34 301 33 C304.26935144 31.62287639 304.26935144 31.62287639 306 29 C306.75 25.5 306.75 25.5 306 22 C303.98006249 19.40904998 302.78704823 18.16057449 299.53278255 17.49663544 C298.60382451 17.49512733 297.67486647 17.49361923 296.71775818 17.49206543 C295.64799744 17.48078613 294.57823669 17.46950684 293.47605896 17.45788574 C292.30760941 17.46598267 291.13915985 17.47407959 289.93530273 17.48242188 C288.70083405 17.4754126 287.46636536 17.46840332 286.19448853 17.46118164 C282.81205593 17.44659241 279.43060197 17.45001125 276.04822421 17.46269798 C272.50886647 17.47282753 268.96955043 17.46343265 265.43019104 17.45715332 C259.48764539 17.44987769 253.54529865 17.45946322 247.6027832 17.47851562 C240.73048302 17.50029445 233.85865732 17.49322572 226.9863686 17.47121 C221.08646087 17.45306536 215.18669606 17.45049272 209.28676945 17.46096468 C205.76270426 17.46720357 202.23886222 17.46802447 198.71481133 17.45481873 C194.78812036 17.44113163 190.86196223 17.46009472 186.93530273 17.48242188 C185.76482895 17.47432495 184.59435516 17.46622803 183.38841248 17.45788574 C182.32147156 17.46916504 181.25453064 17.48044434 180.15525818 17.49206543 C179.22667716 17.49357353 178.29809614 17.49508163 177.3413763 17.49663544 C174.86525748 17.80531366 174.86525748 17.80531366 173.20904636 19.81299591 C171.40579521 23.07483745 171.47772507 25.34407551 172 29 C173.73064856 31.62287639 173.73064856 31.62287639 177 33 C180.63 33.33 184.26 33.66 188 34 C188 50.83 188 67.66 188 85 C159.62 85 131.24 85 102 85 C102 70.81 102 56.62 102 42 C104.31 41.01 106.62 40.02 109 39 C110.21541745 37.19999645 110.21541745 37.19999645 110.25 35.125 C110.33765625 34.46757812 110.4253125 33.81015625 110.515625 33.1328125 C109.67946123 29.67413509 107.70419061 28.22538247 105 26 C101.54861924 25.2531825 101.54861924 25.2531825 97.70288086 25.36889648 C96.62877708 25.35816353 96.62877708 25.35816353 95.53297424 25.34721375 C93.17627318 25.33036416 90.82148444 25.34970253 88.46484375 25.37109375 C86.82247256 25.37026478 85.18010146 25.36780435 83.53773499 25.36378479 C80.10034125 25.3609295 76.66360009 25.37560247 73.22631836 25.40307617 C68.82206618 25.43718609 64.41897858 25.43112967 60.01467037 25.4124136 C56.6251099 25.40184242 53.23582016 25.41078189 49.84628487 25.42579842 C48.22239549 25.43097807 46.59847782 25.43050104 44.97459221 25.42425346 C42.7050182 25.41879846 40.43710885 25.43918107 38.16772461 25.46655273 C36.23176674 25.4758506 36.23176674 25.4758506 34.25669861 25.4853363 C30.94192116 25.7486747 30.94192116 25.7486747 28.58326721 27.81459045 C26.26855247 31.00962895 26.45084321 33.15590245 27 37 C29.21863029 39.90717073 30.51944929 40.83981643 34 42 C34 56.19 34 70.38 34 85 C22.78 85 11.56 85 0 85 C0 56.95 0 28.9 0 0 Z " fill="#FD9600" transform="translate(17,410)"/>
<path d="M0 0 C32.34 0 64.68 0 98 0 C98 72.93 98 145.86 98 221 C64.34 221 30.68 221 -4 221 C-4.16121214 167.03423718 -4.16121214 167.03423718 -4.1953125 144.46289062 C-4.21906991 128.86265824 -4.24703602 113.26251212 -4.30175781 97.66235352 C-4.34158808 86.30208863 -4.36742393 74.94189356 -4.37635398 63.58156079 C-4.38157515 57.56460918 -4.39387237 51.54785731 -4.42292023 45.53096962 C-4.45002896 39.86998859 -4.45845411 34.20928997 -4.45243073 28.5482502 C-4.45353299 26.46852332 -4.4615137 24.38878719 -4.4768219 22.30911636 C-4.49667852 19.47288457 -4.49195483 16.63772368 -4.48101807 13.8014679 C-4.49266943 12.97558727 -4.5043208 12.14970665 -4.51632524 11.29879934 C-4.50836104 10.53643065 -4.50039685 9.77406196 -4.49219131 8.98859119 C-4.4937102 8.33433307 -4.49522908 7.68007494 -4.49679399 7.0059908 C-4 5 -4 5 0 0 Z " fill="#D54214" transform="translate(64,171)"/>
<path d="M0 0 C32.01 0 64.02 0 97 0 C102 5 102 5 102.62099248 7.0059908 C102.61909388 7.66024893 102.61719528 8.31450706 102.61523914 8.98859119 C102.62519439 9.75095988 102.63514963 10.51332857 102.64540654 11.29879934 C102.63084234 12.12467996 102.61627813 12.95056059 102.60127258 13.8014679 C102.60554471 14.68778733 102.60981683 15.57410676 102.61421841 16.48728436 C102.62245453 19.45728763 102.59495303 22.4258788 102.56762695 25.39575195 C102.56621662 27.52454088 102.56700817 29.65333224 102.56983948 31.78211975 C102.57127559 37.56284367 102.54185361 43.34305012 102.50696969 49.12365365 C102.47573906 55.16413016 102.47277804 61.20461818 102.46684265 67.24516296 C102.45129458 78.68446845 102.41025283 90.12353536 102.3600952 101.56273574 C102.2937889 117.02001432 102.26677502 132.47735802 102.23758411 147.93474293 C102.19055186 172.29000736 102.0909456 196.64476831 102 221 C68.34 221 34.68 221 0 221 C0 148.07 0 75.14 0 0 Z " fill="#D54214" transform="translate(350,171)"/>
<path d="M0 0 C18.16735607 -0.07007766 36.33467708 -0.12298206 54.50213909 -0.15543652 C62.93758856 -0.17090614 71.37295404 -0.19199746 79.80834961 -0.22631836 C87.16054824 -0.25621783 94.51268606 -0.27557431 101.8649438 -0.28226548 C105.75801262 -0.28617683 109.65090745 -0.29537091 113.54392052 -0.31719017 C117.20876494 -0.33756405 120.87336383 -0.34383203 124.53825951 -0.33932304 C126.52331041 -0.34054089 128.50833463 -0.35667834 130.49331665 -0.3732605 C131.67817154 -0.36913651 132.86302643 -0.36501251 134.08378601 -0.36076355 C135.62548478 -0.36491162 135.62548478 -0.36491162 137.19832897 -0.36914349 C140.49377123 0.06505847 142.33787737 1.03465983 145 3 C147.07428185 6.11142277 147.24961064 6.76533064 147.24609566 10.28910351 C147.25007775 11.16940894 147.25405985 12.04971438 147.25816262 12.95669574 C147.25233693 13.92458523 147.24651125 14.89247473 147.24050903 15.88969421 C147.24221788 16.91722913 147.24392673 17.94476405 147.24568737 19.00343639 C147.24899407 22.46289141 147.23795907 25.9221545 147.22705078 29.3815918 C147.22648692 31.85490921 147.22680273 34.32822697 147.22793579 36.80154419 C147.22839193 42.13484372 147.2227017 47.46808297 147.21146011 52.80136681 C147.19521718 60.51242317 147.18999835 68.22345587 147.18748413 75.93452749 C147.18310513 88.4447277 147.16979047 100.95490184 147.15087891 113.46508789 C147.13252541 125.61873242 147.11838924 137.77236983 147.10986328 149.92602539 C147.10932729 150.68261466 147.10879129 151.43920392 147.10823905 152.21872014 C147.1040803 158.13560299 147.10016642 164.05248599 147.09632993 169.96936905 C147.07745705 198.97960329 147.03722176 227.9897723 147 257 C96.18 257 45.36 257 -7 257 C-7 256.67 -7 256.34 -7 256 C38.21 256 83.42 256 130 256 C129.67 245.11 129.34 234.22 129 223 C125.04 225.97 125.04 225.97 121 229 C115.40935108 231.79532446 110.418215 231.40693065 104.25 231.4375 C103.095 231.47037109 101.94 231.50324219 100.75 231.53710938 C93.59264142 231.58204713 88.31831613 231.07821898 83 226 C77.72076777 219.72673512 78.40215899 212.84223822 78.5 204.9375 C78.47679687 203.05708008 78.47679687 203.05708008 78.453125 201.13867188 C78.50136924 189.79524377 78.50136924 189.79524377 83 185 C89.62477271 179.1638907 94.65936862 179.78560883 103.25 179.75 C105.09271484 179.7190625 105.09271484 179.7190625 106.97265625 179.6875 C108.75736328 179.67976563 108.75736328 179.67976563 110.578125 179.671875 C111.66512695 179.6625293 112.75212891 179.65318359 113.87207031 179.64355469 C121.59956992 180.52414706 123.79500105 183.92750122 129 190 C129 174.49 129 158.98 129 143 C127.68 144.98 126.36 146.96 125 149 C118.50129435 154.72505022 113.73685214 154.21355067 105.3125 154.25 C103.55389648 154.2809375 103.55389648 154.2809375 101.75976562 154.3125 C94.63555244 154.34468165 88.87812859 154.33901654 83.2578125 149.5 C78.07884252 142.64232941 78.75019893 136.50973848 78.6875 128.1875 C78.64399414 126.28000977 78.64399414 126.28000977 78.59960938 124.33398438 C78.52061013 112.73324926 78.52061013 112.73324926 83 108 C89.37617044 102.10204234 95.50321018 102.78968616 103.8125 102.75 C104.88048828 102.729375 105.94847656 102.70875 107.04882812 102.6875 C113.15407774 102.65729468 117.74853695 102.75819345 123 106 C124.98 108.31 126.96 110.62 129 113 C129 97.49 129 81.98 129 66 C127.68 68.31 126.36 70.62 125 73 C119.19613907 78.38259921 110.75515024 77.5956391 103.375 77.5 C102.17359375 77.51546875 100.9721875 77.5309375 99.734375 77.546875 C93.23926062 77.51807183 88.87153283 77.49236107 84 73 C77.93398946 66.27820453 78.75277773 59.85203121 78.6875 51.1875 C78.64399414 49.28000977 78.64399414 49.28000977 78.59960938 47.33398438 C78.53665833 38.08986537 78.53665833 38.08986537 80.51953125 33.42578125 C86.82681058 27.25756005 91.63531115 25.36814277 100.5546875 25.31640625 C101.69164062 25.33574219 102.82859375 25.35507813 104 25.375 C105.13695312 25.35566406 106.27390625 25.33632812 107.4453125 25.31640625 C116.07024921 25.36643489 121.0844501 27.16472923 127.21484375 33.16943359 C127.80394531 33.77352051 128.39304687 34.37760742 129 35 C129.02473064 30.78247482 129.04287453 26.56498814 129.05493164 22.34741211 C129.05995842 20.91283432 129.06678079 19.47826164 129.07543945 18.04370117 C129.08757752 15.98094418 129.09324486 13.91825496 129.09765625 11.85546875 C129.10289307 10.61434326 129.10812988 9.37321777 129.11352539 8.09448242 C129.14388083 4.96291782 129.14388083 4.96291782 128 2 C85.76 1.67 43.52 1.34 0 1 C0 0.67 0 0.34 0 0 Z " fill="#CE4014" transform="translate(186,136)"/>
<path d="M0 0 C6.06190963 4.34267055 8.96759038 12.83257695 11.75 19.5 C11.75 20.16 11.75 20.82 11.75 21.5 C13.36068359 21.66435547 13.36068359 21.66435547 15.00390625 21.83203125 C16.4401678 21.99161587 17.87636233 22.15180442 19.3125 22.3125 C20.01697266 22.38275391 20.72144531 22.45300781 21.44726562 22.52539062 C27.91190743 23.27016503 33.88521066 24.65927089 38.125 30 C38.60710937 30.5878125 39.08921875 31.175625 39.5859375 31.78125 C42.43488556 35.98775049 42.27620563 40.62861148 41.75 45.5 C40.59587332 50.00109405 38.6116371 52.81721604 34.96484375 55.70703125 C29.01128743 60.22672407 29.01128743 60.22672407 26.47509766 66.93408203 C26.6054495 71.57544863 27.31306731 76.04508322 28.12109375 80.609375 C29.13584561 86.72262185 28.06448133 90.5470563 24.5625 95.75 C20.39550298 99.82439709 16.82217284 101.31716122 11.03125 101.828125 C5.3856392 101.74867356 1.24379613 98.93383444 -3.51367188 96.16796875 C-7.45689806 93.876731 -7.45689806 93.876731 -11.84375 94.0625 C-12.6378125 94.536875 -13.431875 95.01125 -14.25 95.5 C-15.25675781 95.99757813 -16.26351562 96.49515625 -17.30078125 97.0078125 C-18.37714844 97.54148437 -19.45351562 98.07515625 -20.5625 98.625 C-26.70949861 101.44929666 -30.70223652 102.95630628 -37.3359375 100.83203125 C-42.49175514 98.6374546 -45.87802605 95.60178879 -48.25 90.5 C-49.38884983 85.79275403 -49.46689578 82.25827456 -48.4296875 77.56640625 C-46.55598512 69.97208271 -46.55598512 69.97208271 -48.28027344 62.66943359 C-50.65624032 59.80185877 -53.35572586 57.52012164 -56.26171875 55.2109375 C-60.25479355 51.93565664 -61.81362178 48.17388616 -62.6484375 43.05859375 C-62.57658981 36.55637802 -61.07784315 32.13517017 -56.5625 27.3125 C-50.32572659 22.19135632 -40.00974478 21.5 -32.25 21.5 C-31.97414062 20.63503906 -31.69828125 19.77007813 -31.4140625 18.87890625 C-25.92703795 2.95180478 -25.92703795 2.95180478 -18.5859375 -0.7890625 C-12.51792695 -2.63584832 -5.81761488 -2.72557548 0 0 Z " fill="#010100" transform="translate(266.25,1.5)"/>
<path d="M0 0 C3.39557453 3.06429897 6.01759637 5.48452279 7.35546875 9.97265625 C8.42832813 13.29633082 9.33942374 15.59732531 11.5625 18.3125 C15.64551257 19.69089722 19.39044122 20.23993426 23.65234375 20.65234375 C29.15410643 21.58121277 32.27718983 23.81876115 35.875 28 C38.70836185 33.56178438 38.99249046 38.09088261 37.8125 44.1875 C36.38253284 47.6967914 34.15485466 49.63583281 31.31103516 52.07910156 C28.66694771 54.37996214 26.63341597 56.43887501 24.5625 59.3125 C24.22717896 64.23787129 25.43524574 68.54421446 26.5625 73.3125 C26.77439857 79.36926734 25.59082102 83.63093773 21.5625 88.3125 C17.87958548 91.81126879 14.82049508 92.65599705 9.875 92.9375 C3.88384328 92.78101456 -0.03351036 90.80746143 -4.96484375 87.52734375 C-7.35799365 86.09806771 -7.35799365 86.09806771 -9.96484375 86.46875 C-12.55779743 87.35354936 -14.70187212 88.48941407 -17.0625 89.875 C-23.12568775 92.98340028 -28.97648401 93.71689392 -35.546875 91.6484375 C-39.26607043 89.82062778 -41.93248425 87.19350366 -43.7890625 83.48828125 C-45.36949527 78.18526285 -45.10942523 72.07999204 -43.8125 66.73828125 C-43.16269201 63.93598431 -42.88693846 62.15563421 -43.4375 59.3125 C-45.98066619 55.8886766 -48.7266635 53.01098761 -51.80078125 50.07421875 C-56.33686163 45.32309456 -56.895695 41.10768222 -56.75390625 34.74609375 C-56.14133592 30.03459606 -53.58278315 27.36384195 -50.19921875 24.2578125 C-47.08274337 22.06261485 -44.6529881 21.34379423 -40.9375 20.5625 C-39.8340625 20.32015625 -38.730625 20.0778125 -37.59375 19.828125 C-34.79630341 19.3711164 -32.26251749 19.2070889 -29.4375 19.3125 C-29.27894531 18.755625 -29.12039063 18.19875 -28.95703125 17.625 C-26.88209078 10.83845439 -24.40455857 3.9661763 -18.3125 -0.1875 C-12.44211065 -3.06488997 -5.76790507 -2.83151703 0 0 Z " fill="#010100" transform="translate(380.4375,18.6875)"/>
<path d="M0 0 C5.60942009 2.44774695 8.36874716 6.65351816 11 12 C12.14832849 14.96268749 13.13006372 17.94461404 14 21 C14.7734375 21.03738281 15.546875 21.07476562 16.34375 21.11328125 C24.22607833 21.61080445 30.65153874 22.1610872 36.875 27.4375 C40.95000915 32.35148162 41.4589832 36.02893247 41.30078125 42.33203125 C40.74386193 47.27197797 38.16708336 49.87050068 34.6953125 53.23046875 C29.95323604 57.64944693 29.95323604 57.64944693 27.640625 63.4453125 C27.95351663 66.00608344 28.47051858 68.47564141 29 71 C29.58937824 78.42426461 29.81660637 84.07186908 25 90 C20.17466286 93.84057446 16.1213131 94.72084148 9.98046875 94.54296875 C5.39245721 93.70714489 1.70647829 91.5802654 -2.2734375 89.21484375 C-5.48585962 87.783521 -6.72099004 87.84834772 -10 89 C-11.38170299 89.80886643 -12.73627041 90.66557016 -14.0625 91.5625 C-19.58216545 94.73769217 -24.77289442 94.95049971 -31 94 C-35.90331294 91.72346185 -38.5537698 88.80185929 -41 84 C-42.60133091 78.3310548 -41.72354468 73.72971124 -40.4375 68.0625 C-39.68863456 63.61731156 -39.43372034 61.84050169 -41.984375 58.0546875 C-44.62850794 55.42073015 -44.62850794 55.42073015 -47.44921875 53.18359375 C-51.71509774 49.53179229 -53.57220831 45.8162133 -54.05078125 40.1796875 C-53.93556126 35.23409116 -52.66443494 31.1034068 -49.578125 27.203125 C-45.64678805 23.68927516 -42.29400613 22.79737261 -37.07446289 22.23632812 C-33.41440185 21.83155958 -30.49923664 21.28513413 -27 20 C-24.30529864 16.46901201 -23.0508306 13.61503675 -21.5546875 9.4453125 C-17.29650222 0.00883155 -9.44506369 -0.85414075 0 0 Z " fill="#010100" transform="translate(147,17)"/>
<path d="M0 0 C5.58126654 2.48056291 8.37369676 6.65819832 11 12 C11.84867222 14.33494792 12.44344096 16.57137874 13 19 C14.16015625 19.03867188 14.16015625 19.03867188 15.34375 19.078125 C23.61459585 19.5285176 29.53772854 20.53772854 35.5 26.5 C37.72225099 31.6852523 37.743431 36.44342809 37 42 C35.46653508 45.25094564 34.14173136 47.23724669 31.140625 49.2421875 C28.68059115 51.06261255 27.42418109 52.25128898 26 55 C25.67295399 59.04850536 26.06797353 63.04806928 26.55151367 67.07104492 C27.14776867 72.31524705 27.06692419 75.42724366 24 80 C20.44219836 83.90061065 16.87017617 85.75756976 11.625 86.4375 C7.26212465 86.47745307 4.50536634 84.72782503 0.75 82.625 C-4.04860625 80.17344684 -4.04860625 80.17344684 -9.1875 80.9375 C-11.22273588 82.05895651 -13.23425349 83.22461758 -15.21875 84.43359375 C-19.25999402 86.70963147 -22.51418854 87.10894596 -27 86 C-31.27401431 84.22290984 -34.19480057 82.05682425 -37 78.375 C-38.81553947 72.2475543 -38.61156222 66.11571912 -36.875 60 C-36.4442786 58.06519502 -36.4442786 58.06519502 -37 56 C-39.31841178 52.93622967 -41.83150159 50.29398082 -44.58203125 47.61328125 C-47.87650368 44.05269635 -48.86963118 41.40798328 -49.3125 36.625 C-48.83877141 31.12974835 -47.23578061 27.51039852 -43.75 23.25 C-40.87459222 20.96274381 -38.11064568 20.65520899 -34.5222168 20.20068359 C-27.90050398 19.46372885 -27.90050398 19.46372885 -22.90234375 15.32421875 C-21.93444995 13.21033868 -21.03135738 11.06544181 -20.19921875 8.89453125 C-16.52881388 0.03534556 -8.58557993 -0.83910059 0 0 Z " fill="#010100" transform="translate(475,51)"/>
<path d="M0 0 C4.46030669 2.1896051 7.25617442 4.88426163 10 9 C10.29970703 10.09634766 10.29970703 10.09634766 10.60546875 11.21484375 C11.42689258 14.01494597 12.0872225 15.77059494 14 18 C17.17685776 19.00631101 20.13913361 19.56971723 23.42016602 20.04833984 C28.92840445 20.86442513 31.47690682 21.69399723 35 26 C37.96682903 30.88091227 38.52834851 34.95544019 37.77734375 40.5078125 C36.38937888 44.95766973 33.29102421 47.82369559 30 51 C27.4595774 53.33830958 27.4595774 53.33830958 26 56 C26.16703053 59.37801504 26.16703053 59.37801504 26.62109375 61.69140625 C27.55895839 67.40561249 28.09585982 73.60855428 25.5 78.9375 C21.48095669 83.86082806 17.51485542 85.57375332 11.3125 86.625 C7.17912138 86.49557914 4.31633358 84.59732274 0.75 82.625 C-4.06348686 80.17129758 -4.06348686 80.17129758 -9.22265625 80.9375 C-11.26916007 82.05518603 -13.2890024 83.22325246 -15.27734375 84.44140625 C-19.26946271 86.72670821 -21.49215597 86.69949304 -26 86 C-31.26594344 84.14143173 -33.79395768 81.39685804 -37 77 C-38.50547337 72.4835799 -38.40585937 67.98257921 -37.45703125 63.34765625 C-36.89961332 60.35939322 -36.59651843 58.0218194 -37 55 C-39.02061144 52.2269433 -41.17711756 50.17620425 -43.80078125 47.97265625 C-46.89488174 45.19730856 -47.84302849 43.31052955 -48.3359375 39.1953125 C-48.39595732 34.47775494 -48.37631286 30.87806334 -46.5 26.5 C-39.96205244 19.96205244 -32.9890137 19.29963379 -24 19 C-23.82984375 18.41992188 -23.6596875 17.83984375 -23.484375 17.2421875 C-21.53479817 10.95791326 -19.35688887 6.18443359 -14.4375 1.625 C-9.57038192 -0.67581945 -5.29437994 -0.78113802 0 0 Z " fill="#010100" transform="translate(48,51)"/>
<path d="M0 0 C0.82127884 -0.00960754 1.64255768 -0.01921509 2.48872375 -0.02911377 C3.81531258 -0.03548859 3.81531258 -0.03548859 5.16870117 -0.04199219 C6.53933968 -0.0505423 6.53933968 -0.0505423 7.93766785 -0.05926514 C9.87184492 -0.06871136 11.80603807 -0.07524762 13.74023438 -0.07910156 C16.68998528 -0.08879592 19.63903599 -0.11981817 22.58862305 -0.15136719 C24.46947829 -0.15789867 26.35033851 -0.16314857 28.23120117 -0.16699219 C29.10952103 -0.17933899 29.98784088 -0.19168579 30.89277649 -0.20440674 C36.85339133 -0.18287353 41.25322147 0.67050209 45.76245117 4.91503906 C46.24069336 5.511875 46.71893555 6.10871094 47.21166992 6.72363281 C47.94836914 7.62275391 47.94836914 7.62275391 48.69995117 8.54003906 C52.35817576 13.48519608 51.16749489 20.0093484 51.21166992 25.91113281 C51.25517578 27.82539063 51.25517578 27.82539063 51.29956055 29.77832031 C51.37871542 41.44453107 51.37871542 41.44453107 46.89916992 46.16113281 C42.86843226 49.79862778 39.92884324 51.26943796 34.52294922 51.33813477 C33.20093758 51.35738762 33.20093758 51.35738762 31.85221863 51.37702942 C30.90220474 51.38441635 29.95219086 51.39180328 28.97338867 51.39941406 C27.99304153 51.40748581 27.0126944 51.41555756 26.00263977 51.4238739 C23.92723352 51.43770561 21.85180462 51.44843185 19.77636719 51.45629883 C16.60917884 51.47351049 13.44303477 51.51740505 10.27612305 51.56152344 C8.25855259 51.57165081 6.24097327 51.58016677 4.22338867 51.58691406 C2.80747688 51.61317619 2.80747688 51.61317619 1.36296082 51.63996887 C-5.24932926 51.61825271 -8.96688162 50.29830787 -13.76074219 45.49951172 C-18.04274394 39.19656108 -17.8115617 32.95572632 -17.66333008 25.53613281 C-17.67428711 24.33472656 -17.68524414 23.13332031 -17.6965332 21.89550781 C-17.63122041 14.04055579 -16.98555671 10.15983676 -11.50317383 4.51660156 C-7.6307804 1.4290132 -4.9216386 0.04658515 0 0 Z " fill="#010101" transform="translate(384.100830078125,323.8388671875)"/>
<path d="M0 0 C1.22223518 -0.02409439 1.22223518 -0.02409439 2.46916199 -0.04867554 C6.20013393 -0.09339012 9.93093162 -0.13420804 13.66210938 -0.15722656 C15.62414437 -0.17375374 17.58611996 -0.20100086 19.54785156 -0.23925781 C22.38809193 -0.29431515 25.22692319 -0.31594612 28.06762695 -0.33056641 C28.93562424 -0.35323578 29.80362152 -0.37590515 30.69792175 -0.39926147 C36.96817239 -0.37774596 41.06192432 1.22418955 45.9309082 5.19287109 C51.79221587 11.65533852 51.20882016 16.86238551 51.3059082 25.31787109 C51.36198242 27.13544922 51.36198242 27.13544922 51.41918945 28.98974609 C51.49165253 36.38097958 50.94296454 41.54528297 45.9309082 47.19287109 C42.40344058 50.40909157 39.26706081 51.30998934 34.5546875 51.36987305 C33.23267586 51.3891259 33.23267586 51.3891259 31.88395691 51.4087677 C30.93394302 51.41615463 29.98392914 51.42354156 29.00512695 51.43115234 C28.02477982 51.43922409 27.04443268 51.44729584 26.03437805 51.45561218 C23.9589718 51.46944389 21.8835429 51.48017013 19.80810547 51.48803711 C16.64091713 51.50524877 13.47477305 51.54914333 10.30786133 51.59326172 C8.29029087 51.60338909 6.27271155 51.61190505 4.25512695 51.61865234 C2.83921516 51.64491447 2.83921516 51.64491447 1.3946991 51.67170715 C-4.28282542 51.65306096 -7.58672416 51.02633096 -12.0690918 47.19287109 C-17.99223876 40.46929886 -17.31629892 35.16599936 -17.3815918 26.44287109 C-17.4105957 25.16669922 -17.43959961 23.89052734 -17.46948242 22.57568359 C-17.52513373 14.37353746 -17.1884142 10.43305382 -11.47143555 4.54833984 C-7.61796342 1.47583807 -4.89633549 0.08802726 0 0 Z " fill="#010101" transform="translate(94.069091796875,323.80712890625)"/>
<path d="M0 0 C0.92555191 -0.0038269 1.85110382 -0.00765381 2.80470276 -0.01159668 C4.75368341 -0.01430726 6.70270096 -0.00700613 8.65161133 0.00976562 C11.61688304 0.03116324 14.57972541 0.00994764 17.54492188 -0.015625 C19.44661988 -0.0129811 21.34831638 -0.00785482 23.25 0 C24.56598427 -0.01214539 24.56598427 -0.01214539 25.90855408 -0.02453613 C32.64935517 0.07692374 37.96011348 1.62606662 43.04443359 6.19726562 C47.06016767 12.50492374 46.93572041 18.72126907 46.81640625 26.03125 C46.83574219 27.21589844 46.85507813 28.40054687 46.875 29.62109375 C46.84048907 35.81235501 46.40189754 40.59154487 43.04443359 45.86523438 C37.18158996 51.13638654 31.12393727 52.12787365 23.46875 52.02734375 C22.56443741 52.02879898 21.66012482 52.03025421 20.72840881 52.03175354 C18.82826495 52.03010291 16.92810654 52.01863605 15.02807617 51.99780273 C12.13336998 51.96879473 9.24049304 51.97722243 6.34570312 51.99023438 C4.49087659 51.98399726 2.63605579 51.97560653 0.78125 51.96484375 C-0.50495995 51.96924721 -0.50495995 51.96924721 -1.81715393 51.97373962 C-8.28589166 51.87300489 -13.42433809 50.979945 -18.12109375 46.15625 C-22.39481332 39.50824178 -22.20763516 33.42328842 -22.24609375 25.71875 C-22.29540039 23.99301758 -22.29540039 23.99301758 -22.34570312 22.23242188 C-22.38474549 16.03888346 -22.00711843 11.44237743 -18.57055664 6.20825195 C-12.78581575 0.70244827 -7.68295619 -0.07074375 0 0 Z " fill="#010000" transform="translate(98.80859375,255.46875)"/>
<path d="M0 0 C1.28218414 -0.02893593 1.28218414 -0.02893593 2.590271 -0.05845642 C6.49177329 -0.11659792 10.39310116 -0.16546555 14.29492188 -0.19628906 C16.34717645 -0.21786272 18.39933917 -0.25195802 20.45117188 -0.29882812 C23.4239167 -0.36604258 26.39476519 -0.39332138 29.36816406 -0.41235352 C30.27677185 -0.44018417 31.18537964 -0.46801483 32.121521 -0.49668884 C38.08945916 -0.47759948 41.43576406 0.82133079 46.05204773 4.61557007 C51.09842396 9.69840876 51.03951555 15.52354201 51.09277344 22.32006836 C51.08568359 23.41770508 51.07859375 24.5153418 51.07128906 25.64624023 C51.09126953 26.74000977 51.11125 27.8337793 51.13183594 28.96069336 C51.12791286 35.47691691 50.63529042 40.86834631 46.63378906 46.20874023 C42.37370416 49.59942005 38.86800719 51.31346411 33.44116211 51.38574219 C32.59986252 51.39857742 31.75856293 51.41141266 30.89176941 51.42463684 C29.53236992 51.43571724 29.53236992 51.43571724 28.14550781 51.44702148 C27.20955276 51.45509323 26.27359772 51.46316498 25.3092804 51.47148132 C23.32803189 51.48531125 21.34675967 51.49603829 19.36547852 51.50390625 C16.34312561 51.52111589 13.32186767 51.56501135 10.29980469 51.60913086 C8.37338043 51.61925849 6.44694688 51.62777438 4.52050781 51.63452148 C3.62031418 51.65202957 2.72012054 51.66953766 1.79264832 51.68757629 C-4.84800063 51.66474053 -8.2390542 50.3136132 -13.01074219 45.57592773 C-18.12829132 39.03778804 -17.64749311 34.24571111 -17.74121094 26.08374023 C-17.77859375 24.87202148 -17.81597656 23.66030273 -17.85449219 22.41186523 C-17.92705478 15.01048077 -17.36761064 9.87115144 -12.36621094 4.20874023 C-8.63895949 0.70738281 -4.99532905 0.10593689 0 0 Z " fill="#010000" transform="translate(384.3662109375,187.791259765625)"/>
<path d="M0 0 C1.38620544 -0.00361794 1.38620544 -0.00361794 2.80041504 -0.00730896 C4.7434521 -0.00633469 6.68651838 0.00695784 8.62939453 0.03198242 C11.5859302 0.06631544 14.53947529 0.05261254 17.49609375 0.03320312 C19.39324176 0.04010225 21.29038212 0.04977523 23.1875 0.0625 C24.06168579 0.05754013 24.93587158 0.05258026 25.83654785 0.04747009 C32.55654216 0.17500076 37.89758162 1.72842235 42.94897461 6.3125 C46.86915491 12.5088862 46.80682649 18.45007059 46.65625 25.62890625 C46.66720703 26.76585937 46.67816406 27.9028125 46.68945312 29.07421875 C46.62893344 36.0299475 45.88857845 40.75104697 42.09375 46.62890625 C37.84893385 50.00743339 34.34037519 51.72691585 28.93286133 51.82177734 C28.09801712 51.83784027 27.26317291 51.8539032 26.4030304 51.87045288 C22.58046464 51.91515175 18.7580692 51.95598456 14.93530273 51.97900391 C12.92476807 51.99553284 10.91429142 52.02278226 8.90405273 52.06103516 C5.99432108 52.11607573 3.08596487 52.13772105 0.17578125 52.15234375 C-0.71408981 52.17501312 -1.60396088 52.1976825 -2.52079773 52.22103882 C-8.83042725 52.19989778 -13.03577265 50.69179226 -17.90625 46.62890625 C-23.05132537 40.44179029 -22.50675287 33.90950322 -22.40625 26.12890625 C-22.42171875 24.93136719 -22.4371875 23.73382813 -22.453125 22.5 C-22.42305775 15.71231809 -22.3207034 10.93742617 -17.90625 5.62890625 C-12.1915016 0.89257178 -7.28060702 -0.11042025 0 0 Z " fill="#010000" transform="translate(388.90625,255.37109375)"/>
<path d="M0 0 C0.94633301 -0.00099701 1.89266602 -0.00199402 2.86767578 -0.00302124 C4.85783335 0.00163575 6.8480054 0.02094838 8.83789062 0.05419922 C11.86696801 0.10143724 14.89252188 0.09530064 17.921875 0.08203125 C19.86460411 0.093186 21.80731853 0.10740654 23.75 0.125 C25.09408936 0.12226578 25.09408936 0.12226578 26.46533203 0.11947632 C33.24948348 0.27083402 38.60154895 1.79471517 43.73022461 6.38818359 C47.77965597 12.72650146 47.58422887 19.00718788 47.4375 26.3515625 C47.44845703 27.55296875 47.45941406 28.754375 47.47070312 29.9921875 C47.40539033 37.84713953 46.75972664 41.72785856 41.27734375 47.37109375 C37.3848599 50.47470087 34.65534361 51.83275186 29.71411133 51.91943359 C28.87926712 51.93549652 28.04442291 51.95155945 27.1842804 51.96810913 C23.36171464 52.012808 19.5393192 52.05364081 15.71655273 52.07666016 C13.70601807 52.09318909 11.69554142 52.12043851 9.68530273 52.15869141 C6.77557108 52.21373198 3.86721487 52.2353773 0.95703125 52.25 C0.06716019 52.27266937 -0.82271088 52.29533875 -1.73954773 52.31869507 C-7.99473174 52.29773645 -12.35159736 50.86660521 -17.125 46.7265625 C-21.95481245 40.51654065 -21.7010974 33.75115239 -21.5625 26.1640625 C-21.56958984 25.06642578 -21.57667969 23.96878906 -21.58398438 22.83789062 C-21.48410343 10.09154521 -21.48410343 10.09154521 -16.53831482 5.13710022 C-11.06605942 0.65669029 -6.96591441 -0.14319207 0 0 Z " fill="#010000" transform="translate(98.125,187.2734375)"/>
<path d="M0 0 C1.84271484 -0.0309375 1.84271484 -0.0309375 3.72265625 -0.0625 C5.50736328 -0.07023437 5.50736328 -0.07023437 7.328125 -0.078125 C8.41512695 -0.0874707 9.50212891 -0.09681641 10.62207031 -0.10644531 C14.87633295 0.37835202 18.25142661 1.8510942 21.39453125 4.78515625 C26.56469946 11.54614545 25.99956356 16.5585619 26.0625 24.9375 C26.09150391 26.20529297 26.12050781 27.47308594 26.15039062 28.77929688 C26.23336053 40.97587351 26.23336053 40.97587351 21.75 46.25 C15.55969448 52.11259467 8.84412149 51.98290937 0.6875 51.8125 C-0.45783203 51.82345703 -1.60316406 51.83441406 -2.78320312 51.84570312 C-9.47309226 51.78766476 -13.84626133 51.29163925 -19.25 47.25 C-25.59112173 40.39473327 -25.58819681 34.89972122 -25.5625 25.875 C-25.57861328 24.7509375 -25.59472656 23.626875 -25.61132812 22.46875 C-25.61537732 15.61751439 -25.39774313 10.59403891 -20.49609375 5.38671875 C-19.89925781 4.90847656 -19.30242187 4.43023437 -18.6875 3.9375 C-18.08808594 3.44636719 -17.48867187 2.95523437 -16.87109375 2.44921875 C-12.02468656 -1.13595477 -5.78733214 0.02398894 0 0 Z " fill="#020101" transform="translate(221.25,315.75)"/>
<path d="M0 0 C1.21171875 -0.03738281 2.4234375 -0.07476562 3.671875 -0.11328125 C11.05644591 -0.185679 16.3279665 0.23231993 21.875 5.375 C25.80130707 9.2454828 26.14511422 12.57003789 26.37109375 17.875 C26.37241794 20.37507594 26.35219907 22.87523892 26.3125 25.375 C26.31958984 26.633125 26.32667969 27.89125 26.33398438 29.1875 C26.28656613 36.07408773 26.23088919 41.60745507 21.41015625 47.01953125 C14.68435237 52.3537895 8.31049805 51.61938116 0 51.6875 C-1.75763672 51.73100586 -1.75763672 51.73100586 -3.55078125 51.77539062 C-14.2607066 51.85440824 -14.2607066 51.85440824 -19.125 47.375 C-25.37032482 40.4357502 -25.48962693 35.13374731 -25.5 26.0625 C-25.52449219 24.94681641 -25.54898438 23.83113281 -25.57421875 22.68164062 C-25.60147865 15.01706657 -24.85630607 10.35625002 -19.4921875 4.6328125 C-12.92750642 -0.35084591 -8.11461413 0.09317407 0 0 Z " fill="#020101" transform="translate(221.125,238.625)"/>
<path d="M0 0 C1.70542969 -0.02900391 1.70542969 -0.02900391 3.4453125 -0.05859375 C10.5061067 -0.01763787 15.64172104 0.80588131 21 5.625 C26.35045131 12.48455296 26.21051924 18.07251394 26.25 26.4375 C26.270625 27.51837891 26.29125 28.59925781 26.3125 29.71289062 C26.3488485 37.11435415 25.58199665 41.63531967 20.625 47.375 C14.33631926 52.76529778 7.45318852 51.99165448 -0.4375 52 C-1.65244141 52.02449219 -2.86738281 52.04898438 -4.11914062 52.07421875 C-15.17820938 52.11057733 -15.17820938 52.11057733 -20 47.625 C-26.06601054 40.90320453 -25.24722227 34.47703121 -25.3125 25.8125 C-25.34150391 24.54083984 -25.37050781 23.26917969 -25.40039062 21.95898438 C-25.46334167 12.71486537 -25.46334167 12.71486537 -23.48046875 8.05078125 C-16.12452702 0.85701776 -10.21765269 -0.1737696 0 0 Z " fill="#020100" transform="translate(290,161.375)"/>
<path d="M0 0 C1.15951172 -0.03738281 2.31902344 -0.07476562 3.51367188 -0.11328125 C10.77514875 -0.18758857 15.8430704 0.36784727 21.3125 5.375 C25.23880707 9.2454828 25.58261422 12.57003789 25.80859375 17.875 C25.80991794 20.37507594 25.78969907 22.87523892 25.75 25.375 C25.75708984 26.633125 25.76417969 27.89125 25.77148438 29.1875 C25.68548668 41.677012 25.68548668 41.677012 20.8125 47.01953125 C14.11680421 52.23310688 8.26536687 51.62307958 0.0625 51.6875 C-1.76087891 51.73100586 -1.76087891 51.73100586 -3.62109375 51.77539062 C-10.51105728 51.82422897 -15.1917881 51.71615057 -20.6875 47.375 C-26.09581198 40.92662802 -25.95831221 33.64839412 -26.0625 25.6875 C-26.09988281 24.62337891 -26.13726562 23.55925781 -26.17578125 22.46289062 C-26.25389701 15.43681185 -25.32783162 10.77290219 -20.6875 5.375 C-14.33990055 -0.51919949 -8.26056761 0.09936167 0 0 Z " fill="#020100" transform="translate(221.6875,161.625)"/>
<path d="M0 0 C1.60198242 -0.0309375 1.60198242 -0.0309375 3.23632812 -0.0625 C10.25918695 -0.09724513 15.66248214 0.16034291 21.1484375 4.96875 C21.61507812 5.5565625 22.08171875 6.144375 22.5625 6.75 C23.04460937 7.3378125 23.52671875 7.925625 24.0234375 8.53125 C27.35869304 13.45578838 26.49104735 19.73752714 26.5625 25.4375 C26.61857422 27.10522461 26.61857422 27.10522461 26.67578125 28.80664062 C26.75185798 35.94517418 25.96112087 40.78476382 21.1875 46.25 C14.79801655 52.0451129 9.85116834 51.46386731 1.5 51.5 C0.32759766 51.520625 -0.84480469 51.54125 -2.05273438 51.5625 C-9.17694756 51.59468165 -14.93437141 51.58901654 -20.5546875 46.75 C-25.73365748 39.89232941 -25.06230107 33.75973848 -25.125 25.4375 C-25.15400391 24.16583984 -25.18300781 22.89417969 -25.21289062 21.58398438 C-25.29188987 9.98324926 -25.29188987 9.98324926 -20.8125 5.25 C-14.43632956 -0.64795766 -8.30928982 0.03968616 0 0 Z " fill="#020101" transform="translate(289.8125,238.75)"/>
<path d="M0 0 C1.84271484 -0.0309375 1.84271484 -0.0309375 3.72265625 -0.0625 C5.50736328 -0.07023437 5.50736328 -0.07023437 7.328125 -0.078125 C8.41512695 -0.0874707 9.50212891 -0.09681641 10.62207031 -0.10644531 C15.87417121 0.49206135 19.74646498 2.6742265 23.0625 6.75 C23.79919922 7.63171875 23.79919922 7.63171875 24.55078125 8.53125 C27.81236219 13.20582855 26.97287366 18.98849668 27 24.4375 C27.020625 25.45392578 27.04125 26.47035156 27.0625 27.51757812 C27.09606331 34.0162731 27.00037966 40.67452493 22.3684082 45.76977539 C15.50350618 51.74923108 9.78013186 51.64398613 1 51.6875 C-0.155 51.72037109 -1.31 51.75324219 -2.5 51.78710938 C-9.65735858 51.83204713 -14.93168387 51.32821898 -20.25 46.25 C-25.52923223 39.97673512 -24.84784101 33.09223822 -24.75 25.1875 C-24.76546875 23.93388672 -24.7809375 22.68027344 -24.796875 21.38867188 C-24.74863076 10.04524377 -24.74863076 10.04524377 -20.25 5.25 C-13.62522729 -0.5861093 -8.59063138 0.03560883 0 0 Z " fill="#020101" transform="translate(289.25,315.75)"/>
<path d="M0 0 C0.66 0 1.32 0 2 0 C3.31456549 2.76987033 4.6267287 5.54083487 5.9375 8.3125 C6.31068359 9.09818359 6.68386719 9.88386719 7.06835938 10.69335938 C7.42607422 11.45068359 7.78378906 12.20800781 8.15234375 12.98828125 C8.48226318 13.68477783 8.81218262 14.38127441 9.15209961 15.09887695 C10 17 10 17 11 20 C11.58491211 20.11069824 12.16982422 20.22139648 12.77246094 20.33544922 C15.43284863 20.84251637 18.09139719 21.35865979 20.75 21.875 C21.67039062 22.04902344 22.59078125 22.22304688 23.5390625 22.40234375 C24.42851562 22.57636719 25.31796875 22.75039063 26.234375 22.9296875 C27.05131836 23.08679199 27.86826172 23.24389648 28.70996094 23.40576172 C31.01937942 24.00502873 32.91324926 24.85605833 35 26 C34.58113525 26.41362793 34.16227051 26.82725586 33.73071289 27.25341797 C31.83870591 29.12466831 29.95056815 30.99977585 28.0625 32.875 C27.0734668 33.85146484 27.0734668 33.85146484 26.06445312 34.84765625 C25.43603516 35.47285156 24.80761719 36.09804688 24.16015625 36.7421875 C23.57886963 37.3182373 22.99758301 37.89428711 22.39868164 38.48779297 C20.09626924 40.97708297 19.99674396 41.87197846 20.0859375 45.37890625 C20.17597236 46.77385975 20.27268749 48.16839323 20.375 49.5625 C20.44835571 50.64144531 20.44835571 50.64144531 20.52319336 51.7421875 C20.88243245 56.84625654 21.36527659 61.92221268 22 67 C16.75122065 65.06469588 12.08406754 62.25524569 7.25390625 59.4609375 C3.62600725 57.83208489 1.91781371 57.38601427 -2 58 C-5.06531681 59.28315588 -7.92511858 60.8606172 -10.8125 62.5 C-12.33907661 63.34513718 -13.86638062 64.18896225 -15.39453125 65.03125 C-16.06331299 65.40830078 -16.73209473 65.78535156 -17.42114258 66.17382812 C-19 67 -19 67 -20 67 C-19.85764543 65.27054347 -19.71095618 63.54144346 -19.5625 61.8125 C-19.48128906 60.84957031 -19.40007812 59.88664062 -19.31640625 58.89453125 C-19.02299377 56.21035039 -18.5447334 53.64217144 -18 51 C-17.35598608 46.9236846 -17.04141656 43.51325338 -19.31640625 39.921875 C-21.13401919 37.85622092 -23.03762394 35.92828072 -25 34 C-26.32587873 32.55381953 -27.63896887 31.09578526 -28.9375 29.625 C-29.52402344 28.97789063 -30.11054688 28.33078125 -30.71484375 27.6640625 C-32 26 -32 26 -32 24 C-31.45061768 23.93006836 -30.90123535 23.86013672 -30.33520508 23.78808594 C-27.82510095 23.4588746 -25.31912492 23.10469382 -22.8125 22.75 C-21.94818359 22.64042969 -21.08386719 22.53085937 -20.19335938 22.41796875 C-15.09330557 21.67543218 -11.5488068 21.01169464 -8 17 C-6.34166591 14.17236933 -4.9991208 11.2515459 -3.6875 8.25 C-3.32849609 7.45722656 -2.96949219 6.66445313 -2.59960938 5.84765625 C-1.72131842 3.90370559 -0.85903141 1.95253789 0 0 Z " fill="#FAD700" transform="translate(255,18)"/>
<path d="M0 0 C11.55 0 23.1 0 35 0 C35 14.19 35 28.38 35 43 C23.45 43 11.9 43 0 43 C0 28.81 0 14.62 0 0 Z " fill="#01A2EB" transform="translate(409,452)"/>
<path d="M0 0 C11.55 0 23.1 0 35 0 C35 14.19 35 28.38 35 43 C23.45 43 11.9 43 0 43 C0 28.81 0 14.62 0 0 Z " fill="#01A2EB" transform="translate(68,452)"/>
<path d="M0 0 C0.66 0 1.32 0 2 0 C2.53109375 1.13179687 3.0621875 2.26359375 3.609375 3.4296875 C4.32227425 4.91176752 5.03585143 6.39352157 5.75 7.875 C6.27207031 8.99455078 6.27207031 8.99455078 6.8046875 10.13671875 C7.15273438 10.85214844 7.50078125 11.56757812 7.859375 12.3046875 C8.17358398 12.96452637 8.48779297 13.62436523 8.81152344 14.30419922 C11.46639491 18.09235395 15.71159065 18.45537444 20.0390625 19.2421875 C21.13347656 19.43167969 21.13347656 19.43167969 22.25 19.625 C22.99507813 19.7590625 23.74015625 19.893125 24.5078125 20.03125 C26.337563 20.35966676 28.16865754 20.6805798 30 21 C28.7315625 22.485 28.7315625 22.485 27.4375 24 C26.62732422 24.9590625 26.62732422 24.9590625 25.80078125 25.9375 C24.58755287 27.32705441 23.33310299 28.68153946 22.04296875 30 C17.98096017 34.19544682 17.98096017 34.19544682 16.5 39.75 C16.90400326 42.79760749 16.90400326 42.79760749 17.52734375 44.90625 C18.05665354 47.25096112 18.09780416 49.34931695 18.0625 51.75 C18.05347656 52.54921875 18.04445313 53.3484375 18.03515625 54.171875 C18.02355469 54.77515625 18.01195312 55.3784375 18 56 C14.47874882 54.9693899 11.74983301 53.84248745 8.625 51.875 C4.76097811 49.66097438 1.35511288 48.86737836 -3 50 C-6.31146104 51.65984925 -9.42609588 53.49280641 -12.55859375 55.46875 C-15 57 -15 57 -16 57 C-15.9278125 56.41734375 -15.855625 55.8346875 -15.78125 55.234375 C-15.47088016 52.49277476 -15.23715762 49.74887242 -15 47 C-14.87367188 46.00355469 -14.74734375 45.00710937 -14.6171875 43.98046875 C-14.24652033 39.32321513 -14.06149805 36.27574598 -16.90234375 32.4140625 C-19.25900585 30.05443178 -19.25900585 30.05443178 -21.73828125 28.03515625 C-24.12309492 25.88923583 -25.48913846 23.81147374 -27 21 C-24.03374097 19.84645482 -21.27637451 19.0283461 -18.10546875 18.703125 C-12.20863815 18.25642213 -12.20863815 18.25642213 -7.25390625 15.41015625 C-5.92829691 13.32469607 -4.94616493 11.28238153 -4 9 C-3.61199219 8.16597656 -3.22398437 7.33195312 -2.82421875 6.47265625 C-1.83940445 4.33043133 -0.90242497 2.17791949 0 0 Z " fill="#FAD700" transform="translate(370,36)"/>
<path d="M0 0 C3.27805568 4.03677479 5.22713509 8.53000609 7.40234375 13.22265625 C9.08228518 16.14304343 10.0434743 17.43206783 13 19 C16.4273449 19.71889882 16.4273449 19.71889882 20.125 20.0625 C26.78996499 20.78996499 26.78996499 20.78996499 29 23 C28.13375 23.79921875 27.2675 24.5984375 26.375 25.421875 C19.90150733 31.44753236 19.90150733 31.44753236 16.16796875 39.21875 C16.18745363 42.24280351 16.48308294 45.02255775 17 48 C17.17147436 49.74953546 17.33862615 51.499504 17.5 53.25 C17.7475 55.10625 17.7475 55.10625 18 57 C14.68895612 56.33779122 12.13321093 55.06575911 9.1875 53.4375 C4.80169718 51.25099189 1.96046088 50.04271808 -3 51 C-5.97195582 52.43630734 -8.80902887 53.99793169 -11.64453125 55.6875 C-14 57 -14 57 -16 57 C-16.0272415 55.58344207 -16.04650467 54.16672955 -16.0625 52.75 C-16.07410156 51.96109375 -16.08570312 51.1721875 -16.09765625 50.359375 C-16.00321567 48.07769065 -15.60649105 46.19235283 -15 44 C-14.45257775 40.44175539 -14.27620238 38.06268553 -16.3515625 35.015625 C-18.17407371 32.94422459 -20.07054129 30.97182208 -22 29 C-23.15625757 27.67569632 -24.30299915 26.34298907 -25.4375 25 C-26.283125 24.01 -27.12875 23.02 -28 22 C-22.75636284 20.64053851 -17.53509183 19.50067549 -12.19921875 18.5625 C-9.73261074 18.06095631 -9.73261074 18.06095631 -7 16 C-5.96218487 14.29256975 -5.96218487 14.29256975 -5.17578125 12.3046875 C-4.86962891 11.58925781 -4.56347656 10.87382813 -4.24804688 10.13671875 C-3.93931641 9.39035156 -3.63058594 8.64398438 -3.3125 7.875 C-2.99216797 7.12089844 -2.67183594 6.36679687 -2.34179688 5.58984375 C-1.55311583 3.72996904 -0.77548578 1.86541512 0 0 Z " fill="#FAD700" transform="translate(140,35)"/>
<path d="M0 0 C5.61 0 11.22 0 17 0 C17 28.05 17 56.1 17 85 C11.39 85 5.78 85 0 85 C0 56.95 0 28.9 0 0 Z " fill="#F27B00" transform="translate(478,410)"/>
<path d="M0 0 C8.25 0 16.5 0 25 0 C25 16.83 25 33.66 25 51 C16.75 51 8.5 51 0 51 C0 34.17 0 17.34 0 0 Z " fill="#02A7F2" transform="translate(265,444)"/>
<path d="M0 0 C8.25 0 16.5 0 25 0 C25 16.83 25 33.66 25 51 C16.75 51 8.5 51 0 51 C0 34.17 0 17.34 0 0 Z " fill="#02A7F2" transform="translate(222,444)"/>
<path d="M0 0 C3.42356686 3.00678481 4.79823367 6.62573309 6.62109375 10.72265625 C8.21404263 13.35350383 9.11202365 14.03385963 12 15 C14.58903196 15.35488289 17.14997501 15.5014822 19.7578125 15.65625 C22 16 22 16 24 18 C23.26652344 18.58523437 22.53304687 19.17046875 21.77734375 19.7734375 C16.27243097 24.64805471 16.27243097 24.64805471 13.62451172 31.28759766 C13.4818815 36.59027226 14.16051851 41.77336524 15 47 C14.21496094 46.55527344 13.42992187 46.11054687 12.62109375 45.65234375 C6.24214905 42.12002464 6.24214905 42.12002464 -0.8125 40.875 C-4.56178643 42.19827756 -7.60394108 43.93572889 -11 46 C-11.66 46 -12.32 46 -13 46 C-12.91878906 44.865625 -12.83757813 43.73125 -12.75390625 42.5625 C-12.12575127 34.1330013 -12.12575127 34.1330013 -14.453125 26.23046875 C-16.20216619 24.30872812 -18.01890116 22.67566176 -20 21 C-21.03062705 19.69019633 -22.03967358 18.36218609 -23 17 C-21.92621094 16.86207031 -20.85242188 16.72414063 -19.74609375 16.58203125 C-12.0097806 15.50384914 -12.0097806 15.50384914 -5.55517578 11.53466797 C-3.07931373 7.96733 -1.46337178 4.08327934 0 0 Z " fill="#F8D500" transform="translate(42,71)"/>
<path d="M0 0 C2.71986104 3.45304097 4.65108244 7.06254662 6.62109375 10.9765625 C8.87610437 14.28561491 11.17432128 14.82673581 15.015625 15.6328125 C16.08296875 15.79523438 17.1503125 15.95765625 18.25 16.125 C19.32765625 16.29257813 20.4053125 16.46015625 21.515625 16.6328125 C22.33546875 16.75398438 23.1553125 16.87515625 24 17 C23.61328125 17.44730469 23.2265625 17.89460938 22.828125 18.35546875 C22.30734375 18.96003906 21.7865625 19.56460938 21.25 20.1875 C20.73953125 20.77917969 20.2290625 21.37085937 19.703125 21.98046875 C19.14109375 22.64691406 18.5790625 23.31335938 18 24 C17.278125 24.721875 16.55625 25.44375 15.8125 26.1875 C13.28306062 30.11249214 13.55133325 33.25462621 13.75 37.8125 C13.76804687 38.60076172 13.78609375 39.38902344 13.8046875 40.20117188 C13.85155952 42.13464261 13.9232959 44.06748285 14 46 C10.85635556 45.01249029 8.28466573 44.19707628 5.5625 42.3125 C1.86973121 40.42108184 0.00160516 40.95039865 -4 42 C-7.41512419 43.52282584 -10.71775076 45.21028261 -14 47 C-13.82339844 45.90042969 -13.64679688 44.80085938 -13.46484375 43.66796875 C-12.23968945 34.80042535 -12.23968945 34.80042535 -14.90234375 26.4921875 C-17.14974526 23.82938951 -19.48033149 21.40258354 -22 19 C-22.33 18.34 -22.66 17.68 -23 17 C-21.92621094 16.86207031 -20.85242188 16.72414063 -19.74609375 16.58203125 C-12.0097806 15.50384914 -12.0097806 15.50384914 -5.55517578 11.53466797 C-3.07931373 7.96733 -1.46337178 4.08327934 0 0 Z " fill="#F9D600" transform="translate(469,71)"/>
<path d="M0 0 C11.22 0 22.44 0 34 0 C34 5.61 34 11.22 34 17 C22.78 17 11.56 17 0 17 C0 11.39 0 5.78 0 0 Z " fill="#01A4EE" transform="translate(384,341)"/>
<path d="M0 0 C11.22 0 22.44 0 34 0 C34 5.61 34 11.22 34 17 C22.78 17 11.56 17 0 17 C0 11.39 0 5.78 0 0 Z " fill="#01A4EE" transform="translate(94,341)"/>
<path d="M0 0 C11.22 0 22.44 0 34 0 C34 5.61 34 11.22 34 17 C22.78 17 11.56 17 0 17 C0 11.39 0 5.78 0 0 Z " fill="#02A7F2" transform="translate(384,273)"/>
<path d="M0 0 C11.22 0 22.44 0 34 0 C34 5.61 34 11.22 34 17 C22.78 17 11.56 17 0 17 C0 11.39 0 5.78 0 0 Z " fill="#02A7F2" transform="translate(94,273)"/>
<path d="M0 0 C11.22 0 22.44 0 34 0 C34 5.61 34 11.22 34 17 C22.78 17 11.56 17 0 17 C0 11.39 0 5.78 0 0 Z " fill="#02A6F1" transform="translate(384,205)"/>
<path d="M0 0 C11.22 0 22.44 0 34 0 C34 5.61 34 11.22 34 17 C22.78 17 11.56 17 0 17 C0 11.39 0 5.78 0 0 Z " fill="#02A6F1" transform="translate(94,205)"/>
<path d="M0 0 C5.94 0 11.88 0 18 0 C18 5.61 18 11.22 18 17 C12.06 17 6.12 17 0 17 C0 11.39 0 5.78 0 0 Z " fill="#019DE3" transform="translate(281,179)"/>
<path d="M0 0 C5.94 0 11.88 0 18 0 C18 5.61 18 11.22 18 17 C12.06 17 6.12 17 0 17 C0 11.39 0 5.78 0 0 Z " fill="#019DE3" transform="translate(213,179)"/>
<path d="M0 0 C5.61 0 11.22 0 17 0 C17 5.61 17 11.22 17 17 C11.39 17 5.78 17 0 17 C0 11.39 0 5.78 0 0 Z " fill="#01A3EC" transform="translate(282,333)"/>
<path d="M0 0 C5.61 0 11.22 0 17 0 C17 5.61 17 11.22 17 17 C11.39 17 5.78 17 0 17 C0 11.39 0 5.78 0 0 Z " fill="#01A3EC" transform="translate(213,333)"/>
<path d="M0 0 C5.61 0 11.22 0 17 0 C17 5.61 17 11.22 17 17 C11.39 17 5.78 17 0 17 C0 11.39 0 5.78 0 0 Z " fill="#01A4EE" transform="translate(282,256)"/>
<path d="M0 0 C5.61 0 11.22 0 17 0 C17 5.61 17 11.22 17 17 C11.39 17 5.78 17 0 17 C0 11.39 0 5.78 0 0 Z " fill="#01A4EE" transform="translate(213,256)"/>
</svg>
